HIERARCHY
ROOT Hips
{
	OFFSET 0.000000 0.000000 0.000000
	CHANNELS 6 Xposition Yposition Zposition Zrotation Yrotation Xrotation 
	JOINT LHipJoint
	{
		OFFSET 0.000000 0.000000 0.000000
		CHANNELS 3 Zrotation Yrotation Xrotation
		JOINT LeftUpLeg
		{
			OFFSET 1.363060 -1.794630 0.839290
			CHANNELS 3 Zrotation Yrotation Xrotation
			JOINT LeftLeg
			{
				OFFSET 2.448110 -6.726130 0.000000
				CHANNELS 3 Zrotation Yrotation Xrotation
				JOINT LeftFoot
				{
					OFFSET 2.562200 -7.039590 0.000000
					CHANNELS 3 Zrotation Yrotation Xrotation
					JOINT LeftToeBase
					{
						OFFSET 0.157640 -0.433110 2.322550
						CHANNELS 3 Zrotation Yrotation Xrotation
						End Site
						{
							OFFSET 0.000000 0.000000 0.000000
						}
					}
				}
			}
		}
	}
	JOINT RHipJoint
	{
		OFFSET 0.000000 0.000000 0.000000
		CHANNELS 3 Zrotation Yrotation Xrotation
		JOINT RightUpLeg
		{
			OFFSET -1.305520 -1.794630 0.839290
			CHANNELS 3 Zrotation Yrotation Xrotation
			JOINT RightLeg
			{
				OFFSET -2.542530 -6.985550 0.000000
				CHANNELS 3 Zrotation Yrotation Xrotation
				JOINT RightFoot
				{
					OFFSET -2.568260 -7.056230 0.000000
					CHANNELS 3 Zrotation Yrotation Xrotation
					JOINT RightToeBase
					{
						OFFSET -0.164730 -0.452590 2.363150
						CHANNELS 3 Zrotation Yrotation Xrotation
						End Site
						{
							OFFSET 0.000000 0.000000 0.000000
						}
					}
				}
			}
		}
	}
	JOINT LowerBack
	{
		OFFSET 0.000000 0.000000 0.000000
		CHANNELS 3 Zrotation Yrotation Xrotation
		JOINT Spine
		{
			OFFSET 0.028270 2.035590 -0.193380
			CHANNELS 3 Zrotation Yrotation Xrotation
			JOINT Spine1
			{
				OFFSET 0.056720 2.048850 -0.042750
				CHANNELS 3 Zrotation Yrotation Xrotation
				JOINT Neck
				{
					OFFSET 0.000000 0.000000 0.000000
					CHANNELS 3 Zrotation Yrotation Xrotation
					JOINT Neck1
					{
						OFFSET -0.054170 1.746240 0.172020
						CHANNELS 3 Zrotation Yrotation Xrotation
						JOINT Head
						{
							OFFSET 0.104070 1.761360 -0.123970
							CHANNELS 3 Zrotation Yrotation Xrotation
							End Site
							{
								OFFSET 0.000000 0.000000 0.000000
							}
						}
					}
				}
				JOINT LeftShoulder
				{
					OFFSET 0.000000 0.000000 0.000000
					CHANNELS 3 Zrotation Yrotation Xrotation
					JOINT LeftArm
					{
						OFFSET 3.362410 1.200890 -0.311210
						CHANNELS 3 Zrotation Yrotation Xrotation
						JOINT LeftForeArm
						{
							OFFSET 4.983000 -0.000000 -0.000000
							CHANNELS 3 Zrotation Yrotation Xrotation
							JOINT LeftHand
							{
								OFFSET 3.483560 -0.000000 -0.000000
								CHANNELS 3 Zrotation Yrotation Xrotation
								JOINT LeftFingerBase
								{
									OFFSET 0.000000 0.000000 0.000000
									CHANNELS 3 Zrotation Yrotation Xrotation
									JOINT LeftHandIndex1
									{
										OFFSET 0.715260 -0.000000 -0.000000
										CHANNELS 3 Zrotation Yrotation Xrotation
										End Site
										{
											OFFSET 0.000000 0.000000 0.000000
										}
									}
								}
								JOINT LThumb
								{
									OFFSET 0.000000 0.000000 0.000000
									CHANNELS 3 Zrotation Yrotation Xrotation
									End Site
									{
										OFFSET 0.000000 0.000000 0.000000
									}
								}
							}
						}
					}
				}
				JOINT RightShoulder
				{
					OFFSET 0.000000 0.000000 0.000000
					CHANNELS 3 Zrotation Yrotation Xrotation
					JOINT RightArm
					{
						OFFSET -3.136600 1.374050 -0.404650
						CHANNELS 3 Zrotation Yrotation Xrotation
						JOINT RightForeArm
						{
							OFFSET -5.241900 -0.000000 -0.000000
							CHANNELS 3 Zrotation Yrotation Xrotation
							JOINT RightHand
							{
								OFFSET -3.444170 -0.000000 -0.000000
								CHANNELS 3 Zrotation Yrotation Xrotation
								JOINT RightFingerBase
								{
									OFFSET 0.000000 0.000000 0.000000
									CHANNELS 3 Zrotation Yrotation Xrotation
									JOINT RightHandIndex1
									{
										OFFSET -0.622530 -0.000000 -0.000000
										CHANNELS 3 Zrotation Yrotation Xrotation
										End Site
										{
											OFFSET 0.000000 0.000000 0.000000
										}
									}
								}
								JOINT RThumb
								{
									OFFSET 0.000000 0.000000 0.000000
									CHANNELS 3 Zrotation Yrotation Xrotation
									End Site
									{
										OFFSET 0.000000 0.000000 0.000000
									}
								}
							}
						}
					}
				}
			}
		}
	}
}
MOTION
Frames: 12
Frame Time: 0.008333
7.504276 17.703150 0.190626 22.840050 82.800363 42.990495 -11.417519 2.707976 1.114962 -11.987484 8.206737 -31.009098 -0.576404 1.994114 46.160340 2.572450 16.413258 -1.393848 1.922200 -0.000001 -34.119800 9.677640 -3.487593 2.212335 6.095005 -2.620020 -13.924234 1.410147 -0.956259 19.931581 0.235059 2.224764 8.894300 0.269600 -0.000000 -67.239000 1.091592 -1.118415 -4.556239 -0.652985 -1.378952 -4.029217 -6.857000 -1.405783 -1.251851 4.256980 -6.673325 -7.824655 -4.669586 -0.336624 -0.248811 0.000000 0.000000 0.000000 0.500570 7.229296 2.290280 -58.432276 -5.473428 0.868464 -0.593580 -78.772431 -0.066042 12.482179 2.093735 0.203579 -0.235670 0.289314 0.000000 0.000000 0.000000 0.000000 0.000000 0.000000 0.000000 13.099836 -0.816729 -0.291869 72.329108 19.110856 14.275741 0.405033 71.668450 -0.043545 -7.304094 8.779994 -0.595838 0.074526 -0.458709 0.000000 0.000000 0.000000 0.000000 0.000000 0.000000 0.000000 
7.741009 17.760083 0.211165 22.735939 82.362905 42.992126 -11.204928 2.587810 1.140462 -12.697147 7.808385 -31.806401 -0.757573 1.885796 44.391187 2.522402 15.845615 -2.280388 1.657100 0.000000 -33.846000 9.835950 -3.554462 2.148614 5.524908 -2.755565 -12.971625 1.314006 -0.971375 18.794005 0.238257 2.432280 11.338210 0.436700 0.000000 -68.569100 0.465104 -1.007082 -4.484483 -0.775774 -1.212718 -4.019479 -6.748651 -1.238976 -1.263405 4.057726 -6.623555 -7.911745 -4.613035 -0.331102 -0.283828 0.000000 0.000000 0.000000 0.461089 7.428328 2.390751 -58.350138 -4.505039 -0.320005 -0.595316 -78.621353 -0.065549 12.753082 2.166742 0.217303 -0.235207 0.279066 0.000000 0.000000 0.000000 0.000000 0.000000 0.000000 0.000000 12.684955 -0.589495 -0.270754 72.360152 19.972166 17.325343 0.427233 72.652429 -0.036977 -6.199184 9.359769 -0.538007 0.063788 -0.470455 -0.000000 0.000000 0.000000 0.000000 0.000000 0.000000 0.000000 
7.979919 17.808242 0.232004 22.962965 81.970501 43.327571 -10.981271 2.476192 1.204807 -13.378945 7.302011 -32.515079 -0.951927 1.754626 42.421688 2.473417 15.253928 -3.159825 1.405500 0.000000 -33.837600 10.000437 -3.617150 2.080791 4.941648 -2.939869 -12.087692 1.217453 -0.993953 17.818721 0.228505 2.699801 13.657769 0.648600 -0.000000 -69.245001 -0.175210 -0.914079 -4.452494 -0.898786 -1.064501 -4.015526 -6.634563 -1.090730 -1.264112 3.853122 -6.551937 -7.979086 -4.547409 -0.325148 -0.311642 0.000000 0.000000 0.000000 0.437413 7.634549 2.482508 -58.241888 -3.564393 -1.386767 -0.594051 -78.563916 -0.064854 13.005151 2.131151 0.218246 -0.235310 0.270770 -0.000000 0.000000 0.000000 0.000000 0.000000 0.000000 0.000000 12.212881 -0.363404 -0.248156 72.409550 20.820597 20.255010 0.441468 73.723710 -0.030740 -5.156656 9.911452 -0.472986 0.053111 -0.482206 -0.000000 0.000000 0.000000 0.000000 0.000000 0.000000 0.000000 
8.221138 17.847013 0.252599 23.363773 81.624987 43.845426 -10.748994 2.371887 1.309180 -14.016230 6.702097 -33.150770 -1.161424 1.599504 40.245591 2.427916 14.647448 -4.040636 1.166500 0.000000 -34.286600 10.165865 -3.674889 2.011227 4.362438 -3.159851 -11.280324 1.121656 -1.022095 17.023779 0.208021 3.025411 15.825305 0.904500 -0.000000 -69.358000 -0.809418 -0.834836 -4.462895 -1.018256 -0.931444 -4.016706 -6.515788 -0.957943 -1.248931 3.644380 -6.470945 -8.032653 -4.472557 -0.318695 -0.333802 0.000000 0.000000 0.000000 0.417716 7.863448 2.564695 -58.103735 -2.676315 -2.322453 -0.591470 -78.573002 -0.063883 13.213796 2.011281 0.208305 -0.235788 0.264038 0.000000 0.000000 0.000000 0.000000 0.000000 0.000000 0.000000 11.687737 -0.149587 -0.226314 72.465379 21.669168 23.063909 0.447401 74.871350 -0.025045 -4.214826 10.426714 -0.405975 0.043253 -0.493909 -0.000000 0.000000 0.000000 0.000000 0.000000 0.000000 0.000000 
8.464640 17.875995 0.272491 23.817880 81.323152 44.425041 -10.511066 2.273249 1.451887 -14.595448 6.032956 -33.721172 -1.389006 1.418008 37.849411 2.386013 14.021402 -4.934269 0.936701 0.000000 -35.215100 10.326803 -3.727311 1.940431 3.800024 -3.405854 -10.548450 1.028048 -1.054090 16.416375 0.179247 3.402705 17.818188 1.199901 -0.000000 -69.059600 -1.421485 -0.764613 -4.513231 -1.131373 -0.810018 -4.023162 -6.394004 -0.837051 -1.219811 3.431327 -6.372697 -8.071003 -4.388917 -0.311787 -0.349865 0.000000 0.000000 0.000000 0.391693 8.120378 2.639357 -57.932547 -1.850949 -3.130166 -0.588730 -78.628065 -0.062583 13.349415 1.839433 0.190577 -0.236358 0.258461 -0.000000 0.000000 0.000000 0.000000 0.000000 0.000000 0.000000 11.109155 0.062975 -0.208009 72.523899 22.503550 25.721341 0.444286 76.093269 -0.019946 -3.377804 10.890832 -0.339272 0.034288 -0.505483 -0.000000 0.000000 0.000000 0.000000 0.000000 0.000000 0.000000 
8.710566 17.894805 0.291078 24.180421 81.060203 44.924474 -10.273870 2.177680 1.631231 -15.097807 5.326368 -34.237794 -1.635581 1.206767 35.214958 2.345080 13.363342 -5.815815 0.721701 -0.000000 -36.634500 10.474620 -3.775725 1.871266 3.274885 -3.656578 -9.887416 0.938604 -1.087591 15.988471 0.144144 3.809818 19.621833 1.521900 0.000001 -68.534299 -1.992836 -0.697297 -4.603854 -1.234809 -0.695658 -4.034596 -6.270750 -0.723372 -1.174645 3.217809 -6.265226 -8.098349 -4.297202 -0.304447 -0.360932 0.000000 0.000000 0.000000 0.349359 8.413503 2.706412 -57.729515 -1.098281 -3.819282 -0.586597 -78.712917 -0.060879 13.381367 1.651587 0.169157 -0.236685 0.253602 -0.000000 0.000000 0.000000 0.000000 0.000000 0.000000 0.000000 10.486328 0.270034 -0.193960 72.572368 23.331891 28.224307 0.432380 77.382064 -0.015451 -2.653822 11.287508 -0.275877 0.026568 -0.516728 -0.000000 0.000000 0.000000 0.000000 0.000000 0.000000 0.000000 
8.959011 17.903156 0.307744 24.319607 80.829352 45.210963 -10.046051 2.082232 1.843309 -15.505114 4.622035 -34.709565 -1.899246 0.962481 32.329644 2.299242 12.656985 -6.629158 0.533600 -0.000001 -38.616900 10.600446 -3.822210 1.806121 2.806277 -3.889281 -9.285535 0.855153 -1.120714 15.723105 0.104599 4.219555 21.229930 1.852900 -0.000000 -67.974300 -2.506720 -0.626568 -4.732734 -1.325537 -0.583423 -4.050683 -6.147237 -0.611929 -1.113093 3.008369 -6.153454 -8.117471 -4.198173 -0.296717 -0.367714 0.000000 0.000000 0.000000 0.282853 8.745968 2.766107 -57.498569 -0.419397 -4.407498 -0.585204 -78.819729 -0.058737 13.281718 1.482275 0.148442 -0.236423 0.249076 0.000000 0.000000 0.000000 0.000000 0.000000 0.000000 0.000000 9.828396 0.471310 -0.183714 72.598451 24.159454 30.568273 0.412039 78.732148 -0.011494 -2.033419 11.599303 -0.216886 0.020152 -0.527379 -0.000000 0.000000 0.000000 0.000000 0.000000 0.000000 0.000000 
9.210021 17.900660 0.321921 24.113502 80.622773 45.158694 -9.838285 1.983899 2.081802 -15.800779 3.963725 -35.144980 -2.174696 0.683847 29.204971 2.239479 11.883454 -7.304283 0.386700 -0.000000 -40.961100 10.695923 -3.869487 1.747105 2.412171 -4.080577 -8.725172 0.779292 -1.152141 15.597207 0.062561 4.604617 22.643740 2.173500 -0.000000 -67.551000 -2.948446 -0.546264 -4.895597 -1.400925 -0.468398 -4.070870 -6.024573 -0.497815 -1.035830 2.808287 -6.041927 -8.130682 -4.092683 -0.288652 -0.370826 0.000000 0.000000 0.000000 0.187197 9.116476 2.818680 -57.246734 0.192488 -4.917575 -0.584150 -78.947893 -0.056150 13.029894 1.360983 0.132128 -0.235262 0.244553 0.000000 0.000000 0.000000 0.000000 0.000000 0.000000 0.000000 9.145083 0.667289 -0.175758 72.591101 24.991557 32.749219 0.383643 80.139840 -0.007915 -1.493014 11.811295 -0.161801 0.014825 -0.537150 -0.000000 0.000000 0.000000 0.000000 0.000000 0.000000 0.000000 
9.463458 17.886883 0.333099 23.463971 80.431954 44.660744 -9.662431 1.880340 2.336538 -15.974046 3.400127 -35.558378 -2.452627 0.374937 25.896497 2.154676 11.026716 -7.761937 0.294400 0.000000 -43.461300 10.754596 -3.920429 1.695809 2.106031 -4.210822 -8.183477 0.712066 -1.181278 15.586728 0.020046 4.943214 23.869647 2.466800 -0.000000 -67.392900 -3.305899 -0.450778 -5.084593 -1.458751 -0.346040 -4.094512 -5.903337 -0.376558 -0.946257 2.621702 -5.930215 -8.138033 -3.981395 -0.280311 -0.370289 0.000000 0.000000 0.000000 0.061192 9.516290 2.864984 -56.983110 0.754422 -5.376902 -0.582419 -79.104837 -0.053151 12.615854 1.309088 0.122612 -0.232950 0.239802 0.000000 0.000000 0.000000 0.000000 0.000000 0.000000 0.000000 8.442186 0.863666 -0.168120 72.542948 25.828283 34.759526 0.347282 81.603124 -0.004513 -0.996667 11.912741 -0.108521 0.010037 -0.545782 -0.000000 0.000000 0.000000 0.000000 0.000000 0.000000 0.000000 
9.719133 17.861381 0.341000 22.317864 80.248507 43.652318 -9.529326 1.771279 2.593465 -16.025196 2.977652 -35.973291 -2.719840 0.048493 22.513646 2.034034 10.082870 -7.912396 0.268699 0.000000 -45.962300 10.773854 -3.977336 1.653620 1.894320 -4.266519 -7.636677 0.653740 -1.208194 15.669494 -0.020933 5.223882 24.917965 2.721400 -0.000000 -67.568800 -3.572513 -0.336466 -5.288559 -1.497833 -0.213356 -4.119212 -5.784032 -0.245160 -0.844170 2.456043 -5.828541 -8.143610 -3.865294 -0.271724 -0.367377 0.000000 0.000000 0.000000 -0.093902 9.940839 2.904549 -56.715364 1.274727 -5.808258 -0.578966 -79.298026 -0.049812 12.044317 1.337953 0.120892 -0.229370 0.234682 0.000000 0.000000 0.000000 0.000000 0.000000 0.000000 0.000000 7.733864 1.053847 -0.157084 72.441720 26.688017 36.606393 0.303044 83.117359 -0.001112 -0.515084 11.900459 -0.055448 0.005390 -0.553047 -0.000000 0.000000 0.000000 0.000000 0.000000 0.000000 0.000000 
9.976559 17.823839 0.345668 20.699298 80.064896 42.143324 -9.444575 1.659711 2.835577 -15.972279 2.730587 -36.424274 -2.963597 -0.272436 19.231339 1.870826 9.054993 -7.704854 0.307000 0.000000 -48.316400 10.757097 -4.041383 1.621493 1.770049 -4.247640 -7.064121 0.603498 -1.233619 15.829859 -0.058398 5.452009 25.801293 2.936500 0.000000 -68.084900 -3.751675 -0.202919 -5.493858 -1.519084 -0.069729 -4.142978 -5.667623 -0.103056 -0.733495 2.318111 -5.736938 -8.147216 -3.745837 -0.262991 -0.362279 0.000000 0.000000 0.000000 -0.272387 10.375066 2.938515 -56.447444 1.771171 -6.234893 -0.572414 -79.539589 -0.046240 11.334777 1.448726 0.125666 -0.224520 0.229145 -0.000000 0.000000 0.000000 0.000000 0.000000 0.000000 0.000000 7.032773 1.240283 -0.139097 72.280123 27.575080 38.283600 0.250428 84.680526 0.002488 -0.012014 11.778532 0.000016 0.000149 -0.558870 -0.000000 0.000000 0.000000 0.000000 0.000000 0.000000 0.000000 
10.235089 17.774114 0.347577 18.720572 79.877536 40.231876 -9.405279 1.551614 3.044018 -15.854658 2.677609 -36.964288 -3.177777 -0.555656 16.299668 1.665226 7.933641 -7.190984 0.382100 0.000001 -50.041201 10.713197 -4.112766 1.600387 1.713153 -4.169330 -6.453784 0.559584 -1.258631 16.060120 -0.090704 5.648750 26.534151 3.122200 -0.000000 -68.895800 -3.857568 -0.053779 -5.685823 -1.525729 0.082445 -4.164752 -5.555687 0.047304 -0.622962 2.213071 -5.643301 -8.143293 -3.625080 -0.254315 -0.353774 0.000000 0.000000 0.000000 -0.463157 10.791969 2.969840 -56.180550 2.270813 -6.678970 -0.561318 -79.841957 -0.042571 10.522799 1.631449 0.134533 -0.218527 0.223248 -0.000000 0.000000 0.000000 0.000000 0.000000 0.000000 0.000000 6.348792 1.435737 -0.111977 72.057112 28.474737 39.767562 0.188449 86.291519 0.006439 0.553624 11.558561 0.060865 -0.006800 -0.563348 -0.000000 0.000000 0.000000 0.000000 0.000000 0.000000 0.000000 
